<?xml version="1.0" standalone="no"?>
<!DOCTYPE svg PUBLIC "-//W3C//DTD SVG 20010904//EN"
 "http://www.w3.org/TR/2001/REC-SVG-20010904/DTD/svg10.dtd">
<svg version="1.0" xmlns="http://www.w3.org/2000/svg"
 width="260.000000pt" height="260.000000pt" viewBox="0 0 260.000000 260.000000"
 preserveAspectRatio="xMidYMid meet">
<metadata>
Created by potrace 1.11, written by Peter Selinger 2001-2013
</metadata>
<g transform="translate(0.000000,260.000000) scale(0.100000,-0.100000)"
fill="#000000" stroke="none">
<path d="M344 2550 c-4 -8 -6 -23 -5 -34 2 -12 -2 -16 -11 -11 -7 3 -5 0 4 -8
14 -11 15 -16 5 -27 -10 -10 -9 -11 2 -5 10 6 12 4 5 -6 -4 -8 -9 -23 -9 -34
0 -11 -4 -25 -8 -32 -4 -7 0 -16 10 -22 14 -8 15 -10 3 -11 -12 0 -13 -2 -1
-9 9 -6 10 -11 2 -15 -8 -5 -8 -13 0 -28 7 -12 7 -18 1 -14 -6 3 -9 0 -8 -6 3
-20 16 -38 29 -38 6 0 2 7 -9 16 -18 14 -18 15 4 4 13 -6 30 -9 38 -6 8 3 13
2 10 -3 -3 -5 20 -8 50 -7 31 0 58 -2 60 -6 3 -4 11 -5 18 -2 8 3 16 -2 19
-13 4 -16 5 -16 6 2 1 13 4 16 9 9 4 -7 21 -13 37 -15 17 -2 36 -8 44 -14 11
-7 13 -7 7 3 -4 6 -3 12 3 12 5 0 12 -6 14 -12 4 -10 6 -10 6 0 1 10 5 9 17
-3 9 -9 23 -14 30 -11 8 3 14 2 14 -3 0 -5 10 -8 23 -7 12 1 25 -3 29 -8 3 -5
20 -11 37 -12 49 -6 55 -8 70 -27 9 -13 17 -15 23 -9 12 12 41 4 33 -8 -3 -5
4 -6 15 -3 11 3 20 1 20 -5 0 -5 7 -13 16 -16 8 -3 12 -2 9 4 -3 5 15 -3 40
-16 25 -14 45 -22 45 -17 0 4 5 0 11 -10 8 -14 14 -16 25 -6 11 9 14 8 14 -4
0 -9 5 -19 12 -23 7 -5 8 -3 3 7 -5 8 1 5 13 -5 12 -11 22 -15 22 -11 0 4 9
-2 19 -14 14 -16 21 -18 24 -9 4 8 6 7 6 -4 1 -10 4 -17 9 -16 14 4 52 -13 52
-23 0 -6 5 -7 10 -4 5 3 10 1 10 -5 0 -6 5 -8 12 -4 7 5 9 2 5 -9 -4 -11 -2
-14 9 -10 7 3 14 -1 14 -8 0 -7 3 -10 6 -6 4 3 12 1 20 -6 34 -31 44 -37 59
-37 8 0 15 -7 15 -16 0 -8 4 -13 9 -10 5 3 12 -1 15 -10 4 -9 9 -14 13 -11 3
4 18 -7 33 -23 16 -17 33 -30 40 -30 6 0 8 -4 5 -10 -3 -5 0 -10 7 -10 7 0 19
-9 26 -20 7 -11 19 -20 28 -20 8 0 13 -4 9 -9 -3 -5 4 -12 15 -16 11 -3 20
-13 20 -21 0 -8 4 -13 8 -10 5 3 15 -6 22 -19 7 -13 17 -22 22 -19 4 3 8 -3 8
-13 0 -15 2 -16 10 -3 8 13 10 12 10 -3 0 -17 12 -33 72 -97 15 -15 24 -31 21
-34 -4 -3 -1 -6 5 -6 7 0 12 -7 12 -15 0 -8 7 -15 15 -15 8 0 15 -5 15 -11 0
-6 7 -17 15 -26 8 -8 12 -19 9 -25 -4 -6 -3 -8 3 -5 5 4 16 -6 24 -21 8 -15
20 -31 27 -35 7 -5 10 -12 7 -18 -4 -5 -1 -9 4 -9 6 0 11 -6 11 -13 0 -7 9
-23 21 -36 12 -12 19 -25 16 -27 -3 -3 3 -14 14 -25 11 -11 17 -24 14 -29 -4
-6 -1 -10 4 -10 6 0 11 -7 11 -15 0 -8 5 -15 10 -15 6 0 10 -9 10 -20 0 -11 5
-20 11 -20 5 0 7 -4 4 -10 -3 -5 -1 -10 6 -10 7 0 9 -3 6 -6 -3 -4 -1 -16 5
-28 7 -11 11 -24 10 -28 -1 -5 3 -8 9 -8 6 0 9 -6 6 -14 -3 -8 1 -17 10 -20 8
-4 13 -12 10 -20 -3 -7 0 -19 6 -25 6 -6 7 -11 2 -11 -6 0 -4 -4 2 -8 7 -5 14
-20 15 -35 1 -15 7 -27 12 -27 5 0 6 -3 3 -7 -4 -3 -2 -12 4 -20 6 -7 8 -13 4
-13 -4 0 -2 -7 5 -15 6 -8 9 -18 6 -24 -4 -5 0 -16 8 -24 10 -10 11 -18 4 -25
-6 -6 -6 -12 1 -16 6 -4 11 -18 11 -32 0 -13 4 -24 9 -24 5 0 8 -11 6 -25 -1
-14 1 -25 6 -25 4 0 6 -13 4 -30 -2 -16 0 -30 4 -30 14 0 21 -29 9 -36 -7 -4
-8 -3 -4 4 4 7 2 12 -3 12 -15 0 -14 -15 3 -29 8 -7 13 -21 11 -32 -2 -10 2
-19 8 -19 7 0 6 -4 -3 -10 -14 -9 -7 -12 16 -9 4 0 11 -5 15 -13 5 -7 9 -8 9
-3 0 6 11 12 25 13 14 1 25 -3 25 -9 0 -5 5 -7 10 -4 6 4 7 11 4 17 -4 5 5 3
18 -6 14 -9 27 -14 29 -12 10 10 59 14 59 5 0 -6 5 -7 10 -4 6 4 8 11 5 16 -3
5 1 6 9 3 9 -3 13 -11 9 -18 -4 -7 -1 -7 9 1 8 7 17 10 20 7 3 -3 6 33 6 80
-1 55 -4 83 -11 79 -6 -4 -7 -1 -1 8 10 17 6 67 -8 93 -8 14 -7 17 3 11 8 -6
10 -4 3 6 -4 8 -10 20 -11 27 -2 6 -4 18 -6 25 -1 6 -6 18 -10 24 -5 8 -4 13
3 13 6 0 4 9 -5 23 -8 13 -12 27 -8 30 3 4 2 7 -3 7 -5 0 -10 14 -10 31 -1 17
-8 35 -15 40 -8 5 -10 9 -5 9 5 0 1 9 -8 19 -13 14 -14 21 -6 26 9 6 9 9 1 15
-7 3 -14 19 -17 35 -7 37 -13 47 -26 39 -7 -5 -7 -1 0 12 8 15 6 24 -11 43
-12 13 -15 21 -7 17 12 -6 12 -5 -1 6 -9 7 -14 19 -12 26 3 6 0 12 -7 12 -6 0
-8 5 -5 10 3 6 2 10 -4 10 -6 0 -8 7 -5 15 4 8 1 15 -5 15 -6 0 -11 7 -11 15
0 8 -5 15 -11 15 -5 0 -7 5 -3 12 4 6 -1 17 -11 24 -10 8 -15 20 -11 29 3 9 2
13 -4 10 -6 -3 -10 1 -10 10 0 10 -5 13 -12 9 -6 -4 -8 -3 -4 4 3 6 0 17 -8
25 -8 8 -12 17 -9 21 3 3 -2 9 -11 12 -14 5 -15 9 -4 15 9 6 10 9 1 9 -13 0
-49 59 -45 73 1 5 -2 6 -8 2 -5 -3 -10 1 -10 10 0 10 -5 13 -12 9 -6 -4 -8 -3
-5 3 4 6 -2 21 -13 33 -11 12 -17 26 -15 30 3 4 -5 10 -16 13 -12 3 -18 10
-15 15 3 6 -1 12 -9 16 -8 3 -15 12 -15 20 0 7 -7 17 -16 20 -9 4 -14 9 -11
13 4 3 -7 18 -23 33 -16 15 -26 30 -23 34 3 3 -1 6 -10 6 -8 0 -19 9 -22 20
-3 11 -11 20 -16 20 -6 0 -7 5 -4 10 3 6 1 10 -5 10 -15 0 -41 26 -33 34 4 3
1 6 -6 6 -7 0 -48 36 -92 80 -44 44 -85 80 -90 80 -5 0 -9 8 -9 17 0 9 -3 14
-6 10 -4 -3 -15 4 -26 16 -11 12 -16 15 -12 7 3 -8 -7 0 -25 18 -17 18 -31 30
-31 25 0 -4 -5 0 -11 10 -5 9 -19 17 -29 17 -11 0 -19 6 -17 13 1 6 -6 11 -15
11 -10 -1 -15 2 -12 7 3 5 -1 9 -8 9 -8 0 -21 9 -31 20 -9 11 -24 20 -32 20
-9 0 -13 5 -10 10 3 6 -3 10 -14 10 -12 0 -21 5 -21 11 0 5 -4 8 -9 5 -5 -3
-11 1 -15 9 -3 8 -16 15 -28 15 -13 0 -29 9 -36 21 -8 12 -19 18 -28 15 -9 -3
-12 -1 -9 4 3 6 1 10 -4 10 -6 0 -14 0 -18 1 -9 1 -65 31 -73 39 -14 14 -61
33 -67 27 -3 -4 -15 0 -25 10 -10 9 -28 17 -41 18 -12 2 -21 8 -19 14 1 7 -7
10 -23 7 -14 -3 -25 0 -25 5 0 5 -9 9 -21 9 -11 0 -18 4 -15 9 3 4 -2 8 -12 8
-46 0 -63 4 -57 13 5 8 -39 16 -67 11 -5 0 -8 3 -8 8 0 5 -7 12 -16 15 -10 4
-13 2 -8 -7 6 -9 4 -9 -8 1 -9 7 -20 12 -24 11 -18 -4 -64 14 -64 25 0 7 -3 7
-8 1 -10 -14 -32 -17 -32 -5 0 5 -16 8 -36 6 -19 -1 -38 2 -41 7 -4 6 -1 7 7
2 9 -5 11 -4 6 4 -4 6 -13 8 -19 4 -17 -10 -47 -11 -41 -1 3 5 -7 7 -23 6 -16
-1 -34 1 -41 6 -7 4 -12 2 -12 -5 0 -8 -6 -6 -18 4 -14 13 -21 14 -30 5 -10
-10 -17 -10 -33 0 -17 11 -24 11 -37 0 -10 -8 -13 -9 -9 -1 5 8 0 11 -13 10
-10 -1 -23 -8 -26 -17z"/>
<path d="M360 1879 c0 -6 -6 -9 -14 -6 -11 4 -13 0 -11 -15 3 -12 -1 -28 -8
-37 -8 -9 -8 -12 -1 -8 7 4 17 0 24 -8 11 -13 10 -14 -2 -10 -9 4 -15 0 -15
-9 0 -8 5 -12 11 -8 6 3 3 -7 -8 -22 -10 -16 -14 -26 -8 -22 5 3 15 -1 22 -9
11 -13 10 -14 -2 -10 -9 4 -15 0 -15 -9 0 -8 5 -12 11 -8 6 3 3 -6 -7 -21 -10
-15 -14 -27 -10 -26 20 3 24 -2 13 -16 -8 -10 -9 -15 -2 -15 6 0 9 -6 6 -14
-8 -21 31 -39 55 -26 14 7 22 7 27 -2 5 -7 3 -8 -6 -3 -9 5 -11 4 -6 -4 4 -6
13 -8 19 -4 18 11 36 12 42 3 3 -5 19 -5 36 0 23 7 31 6 36 -6 4 -11 9 -12 19
-3 10 9 15 8 19 -3 3 -8 19 -13 40 -13 19 1 35 -3 35 -8 0 -5 7 -4 15 3 15 12
16 11 19 -12 1 -16 26 -18 45 -4 11 8 13 8 7 -1 -7 -13 2 -16 46 -16 10 0 14
-5 11 -13 -4 -10 0 -12 13 -7 14 5 16 3 11 -12 -6 -15 -5 -16 8 -5 12 10 15
10 15 0 0 -7 7 -10 15 -6 8 3 15 1 15 -5 0 -6 5 -7 10 -4 6 3 10 -1 10 -9 0
-10 6 -13 15 -10 8 4 15 1 15 -7 0 -7 3 -9 7 -6 3 4 12 -1 20 -11 10 -11 12
-12 8 -2 -4 9 -1 8 8 -3 9 -10 19 -19 24 -20 4 -1 7 -5 6 -9 -2 -4 4 -5 12 -2
8 4 15 1 15 -6 0 -6 3 -9 8 -7 10 7 32 -19 24 -29 -4 -4 -2 -4 5 0 6 3 22 -4
36 -16 13 -13 49 -45 80 -72 30 -28 54 -53 51 -58 -3 -4 2 -5 10 -2 9 3 16 1
16 -4 0 -6 11 -23 25 -37 14 -14 22 -25 18 -25 -4 0 0 -5 10 -11 9 -5 17 -17
17 -25 0 -8 5 -12 10 -9 6 3 10 -1 10 -9 0 -9 5 -16 11 -16 5 0 7 -4 4 -10 -3
-5 1 -10 9 -10 9 0 16 -8 16 -19 0 -11 5 -21 11 -23 5 -2 12 -12 13 -23 2 -11
9 -19 15 -18 6 2 10 0 9 -5 -4 -14 13 -52 24 -52 6 0 5 -7 -3 -17 -9 -11 -10
-14 -2 -10 14 9 47 -59 36 -76 -3 -6 -1 -7 5 -3 8 5 12 -2 12 -19 0 -15 4 -24
10 -20 6 4 10 -7 10 -24 0 -17 5 -31 11 -31 6 0 8 -7 5 -17 -4 -9 -1 -20 6
-25 10 -6 10 -8 -1 -8 -11 0 -9 -4 5 -15 12 -9 14 -14 6 -15 -8 0 -10 -5 -5
-13 8 -12 13 -32 15 -54 1 -7 4 -13 8 -13 4 0 6 -10 5 -23 -1 -12 3 -28 9 -36
8 -11 8 -13 -1 -7 -16 9 -17 -6 -1 -22 9 -9 9 -12 0 -12 -9 0 -10 -5 -3 -19 6
-10 7 -22 3 -26 -4 -5 -1 -5 6 -1 6 4 12 2 12 -4 0 -6 5 -8 10 -5 6 4 7 11 4
17 -4 5 5 3 18 -6 14 -9 27 -14 29 -12 10 10 59 14 59 5 0 -6 5 -7 10 -4 6 4
8 11 5 16 -3 5 1 6 9 3 9 -3 13 -11 9 -18 -5 -8 -3 -8 8 0 8 6 24 14 36 16 17
5 20 2 15 -11 -5 -14 -4 -14 13 -1 10 8 19 14 19 12 1 -2 9 0 19 4 10 3 16 13
13 20 -3 8 0 14 7 14 8 0 6 4 -3 10 -11 7 -11 10 -2 10 7 0 10 5 6 12 -4 6 -7
26 -6 45 1 23 -2 32 -10 27 -7 -5 -9 -2 -5 9 3 9 1 18 -6 21 -9 3 -9 5 1 5 6
1 12 6 12 12 0 5 -4 8 -8 5 -5 -3 -8 11 -7 30 1 18 -2 34 -7 34 -5 0 -4 9 2
20 8 16 8 20 -2 18 -8 -2 -12 5 -10 16 2 13 -1 16 -10 10 -10 -6 -10 -4 1 9
10 13 10 17 1 17 -8 0 -11 9 -8 25 3 13 1 23 -5 22 -5 -1 -12 14 -14 33 -2 19
-10 40 -17 45 -7 6 -11 16 -9 23 3 6 0 12 -7 12 -6 0 -8 5 -5 11 4 6 -1 17
-11 25 -11 9 -14 13 -7 10 6 -4 -3 22 -20 56 -17 35 -30 66 -29 71 1 4 -2 7
-8 7 -5 0 -6 7 -3 17 4 10 2 14 -4 10 -6 -4 -17 1 -24 10 -12 14 -12 16 1 8
11 -6 10 -3 -2 12 -10 11 -18 25 -18 31 0 6 -6 15 -14 19 -7 4 -21 23 -30 41
-9 18 -21 30 -26 27 -6 -4 -10 0 -10 9 0 8 -12 28 -27 44 -94 100 -118 128
-116 134 2 4 -6 10 -17 13 -11 4 -20 14 -20 23 0 15 -2 15 -10 2 -8 -13 -10
-13 -10 2 0 9 -9 19 -19 23 -11 3 -23 15 -26 25 -3 11 -9 19 -13 19 -20 -3
-32 2 -27 11 3 6 -1 10 -9 10 -9 0 -16 5 -16 12 0 6 -3 9 -6 5 -3 -3 -17 6
-30 20 -13 14 -24 23 -24 19 0 -4 -9 -2 -20 4 -11 6 -17 16 -14 22 5 7 2 9 -9
5 -9 -3 -17 -1 -19 4 -2 5 -13 11 -25 12 -12 0 -19 5 -17 9 3 4 -2 8 -10 8 -9
0 -16 5 -16 10 0 6 -9 10 -20 10 -11 0 -20 5 -20 10 0 6 -9 10 -20 10 -11 0
-20 5 -20 11 0 5 -4 8 -9 4 -6 -3 -16 1 -23 8 -7 8 -20 12 -29 10 -10 -3 -18
3 -22 18 -5 19 -8 20 -21 9 -10 -8 -16 -9 -16 -2 0 7 -7 9 -17 5 -11 -4 -14
-3 -9 5 7 12 -10 16 -48 12 -11 -1 -15 3 -12 9 9 14 0 14 -26 0 -11 -6 -18 -7
-15 -2 3 4 -1 14 -9 21 -11 10 -14 10 -14 0 0 -9 -3 -9 -10 2 -9 13 -10 13
-10 0 0 -13 -2 -13 -9 -1 -5 8 -16 11 -25 8 -9 -4 -16 -2 -16 4 0 6 -4 7 -10
4 -5 -3 -10 -2 -10 3 0 11 -30 9 -49 -3 -10 -6 -12 -4 -6 5 6 10 0 12 -23 8
-17 -2 -29 -1 -27 3 3 4 -2 10 -11 13 -9 3 -12 2 -9 -5 9 -13 -27 -8 -37 6 -5
6 -8 5 -8 -2 0 -7 -7 -13 -15 -13 -8 0 -15 5 -15 11 0 6 -5 7 -12 2 -19 -11
-39 -13 -32 -2 3 5 -2 9 -10 9 -9 0 -16 -5 -16 -11z"/>
<path d="M361 1283 c-6 -10 -11 -12 -11 -5 0 20 -16 14 -17 -8 -1 -11 4 -20
10 -20 7 0 6 -4 -3 -10 -11 -7 -11 -10 -2 -10 8 0 10 -5 5 -12 -4 -7 -8 -22
-8 -33 0 -11 -4 -26 -8 -33 -5 -7 -2 -14 8 -18 13 -6 14 -8 3 -15 -10 -7 -11
-9 0 -9 8 0 10 -5 5 -12 -4 -7 -8 -22 -8 -33 0 -11 -4 -26 -8 -33 -5 -7 -2
-14 7 -18 9 -3 13 -10 10 -15 -5 -9 9 -13 35 -10 7 2 10 -2 7 -7 -5 -9 14 -12
67 -13 11 0 15 -5 10 -12 -4 -7 2 -5 12 3 11 9 16 10 11 3 -5 -9 1 -13 18 -13
14 0 26 -5 26 -11 0 -5 4 -7 10 -4 5 3 17 -3 27 -14 13 -15 19 -17 25 -8 5 8
8 6 8 -7 0 -15 3 -16 15 -6 12 10 15 10 15 -3 0 -8 14 -21 30 -29 17 -7 30
-19 30 -27 0 -8 3 -12 6 -8 11 11 87 -70 79 -85 -5 -7 -5 -10 0 -6 9 8 35 -15
35 -31 0 -6 5 -11 10 -11 6 0 10 -6 10 -14 0 -7 7 -19 15 -26 9 -7 14 -19 11
-27 -3 -7 -1 -13 4 -13 6 0 10 -9 10 -20 0 -11 6 -23 14 -26 8 -3 12 -16 10
-35 -2 -16 0 -29 5 -29 5 0 11 -9 14 -20 3 -12 1 -18 -5 -14 -6 4 -6 -1 1 -14
6 -10 8 -29 6 -41 -2 -12 0 -19 6 -16 5 4 9 -4 9 -17 0 -18 2 -20 10 -8 5 8
10 11 10 6 0 -5 7 -3 15 4 13 11 14 10 9 -4 -5 -14 -3 -15 19 -7 17 7 28 6 37
-2 9 -9 11 -9 7 -1 -9 15 20 27 29 12 5 -7 2 -8 -6 -3 -9 6 -11 4 -5 -4 5 -9
10 -10 18 -2 14 14 30 14 22 1 -3 -6 1 -7 9 -4 9 3 14 9 11 13 -2 4 2 8 9 8 8
0 12 -6 9 -14 -4 -11 0 -11 23 -3 19 8 29 8 34 0 5 -8 10 -7 17 2 16 19 9 148
-8 159 -12 7 -12 9 1 9 9 0 11 3 5 8 -11 8 -17 27 -17 59 0 13 -5 20 -11 16
-6 -4 -8 0 -4 10 3 9 2 19 -4 23 -6 3 -8 12 -5 20 3 8 2 14 -3 14 -10 0 -24
38 -22 58 1 7 -5 15 -14 18 -9 4 -14 13 -11 20 3 8 1 14 -5 14 -6 0 -7 5 -4
10 3 6 -1 10 -10 10 -9 0 -13 5 -10 10 3 6 1 10 -6 10 -7 0 -10 3 -6 6 3 4 -1
13 -9 21 -8 8 -12 19 -9 24 4 5 -1 9 -9 9 -9 0 -16 6 -16 14 0 7 -11 21 -25
30 -14 9 -25 23 -25 32 0 8 -7 17 -15 20 -8 4 -12 10 -9 15 3 5 -2 6 -10 3
-11 -4 -16 0 -16 10 0 9 -7 16 -16 16 -8 0 -13 4 -9 9 3 5 -4 12 -15 16 -11 4
-18 11 -15 16 3 5 -1 6 -9 3 -11 -4 -16 0 -16 11 0 9 -4 13 -10 10 -5 -3 -10
-1 -10 4 0 6 -7 11 -15 11 -8 0 -15 4 -15 10 0 5 -7 7 -15 3 -10 -3 -15 -1
-13 8 2 7 -6 15 -17 17 -11 2 -27 13 -36 24 -13 14 -18 15 -22 6 -4 -10 -6
-10 -6 0 -1 6 -10 12 -21 12 -11 0 -20 5 -20 11 0 5 -4 8 -9 5 -5 -3 -14 0
-20 8 -6 7 -23 14 -38 14 -15 0 -29 5 -31 11 -2 6 -8 11 -13 11 -6 0 -7 -4 -4
-10 3 -5 -1 -10 -10 -10 -9 0 -14 4 -11 9 3 5 -3 11 -14 14 -11 3 -18 1 -14
-4 3 -5 0 -9 -5 -9 -6 0 -11 8 -12 18 0 10 -3 12 -6 5 -2 -7 -11 -13 -19 -13
-10 0 -12 5 -8 13 5 8 2 8 -9 -2 -15 -12 -17 -11 -17 5 0 17 -1 17 -13 -1 -11
-14 -16 -15 -22 -5 -6 9 -4 11 5 5 9 -5 11 -4 6 3 -10 16 -13 15 -25 -5z m249
-53 c0 -5 -5 -10 -11 -10 -5 0 -7 5 -4 10 3 6 8 10 11 10 2 0 4 -4 4 -10z"/>
<path d="M290 638 c0 -10 -5 -18 -11 -18 -5 0 -8 4 -5 9 7 11 -14 9 -34 -4 -8
-5 -24 -8 -35 -7 -15 2 -16 1 -7 -6 11 -7 9 -10 -7 -15 -12 -3 -24 -5 -28 -5
-3 0 -10 -7 -15 -16 -5 -9 -12 -15 -16 -12 -4 2 -13 -2 -20 -10 -7 -8 -11 -14
-8 -14 3 0 -5 -11 -17 -24 -36 -39 -48 -56 -41 -56 3 0 1 -6 -5 -13 -6 -8 -8
-17 -4 -20 3 -4 1 -7 -5 -7 -6 0 -9 -9 -7 -20 2 -11 -1 -22 -7 -26 -6 -4 -5
-10 3 -15 10 -6 11 -9 2 -9 -16 0 -18 -96 -3 -105 8 -5 7 -11 -1 -21 -8 -10
-8 -14 0 -14 6 0 11 -11 11 -24 0 -14 5 -28 10 -31 6 -3 10 -16 10 -28 0 -18
2 -19 10 -7 8 13 10 12 10 -3 0 -10 20 -37 44 -61 34 -34 47 -42 56 -33 10 9
11 9 6 0 -11 -20 33 -25 195 -21 111 2 153 6 157 16 2 6 8 10 13 7 5 -4 6 1 3
10 -5 11 -2 14 12 9 11 -4 16 -4 12 1 -4 4 7 19 24 32 18 12 26 23 19 23 -10
0 -10 3 1 15 32 35 38 45 38 63 0 10 6 24 13 31 10 11 9 12 -3 6 -11 -6 -10
-3 2 11 14 16 15 23 6 32 -9 9 -9 12 1 12 9 0 11 8 8 22 -4 12 -1 29 6 37 8
10 8 13 1 8 -16 -10 -25 18 -11 33 9 9 9 11 1 7 -7 -4 -14 0 -17 7 -3 8 -1 17
6 20 7 2 3 5 -8 5 -17 1 -17 3 -5 11 10 6 11 10 3 10 -7 0 -12 3 -11 8 3 15
-17 48 -44 73 -15 15 -24 29 -21 33 3 3 1 6 -6 6 -17 0 -42 26 -33 35 4 5 -1
5 -10 2 -10 -4 -18 -2 -18 4 0 6 -4 7 -10 4 -5 -3 -10 -1 -10 4 0 6 -9 11 -20
11 -11 0 -20 5 -20 11 0 8 -6 7 -17 -2 -14 -12 -16 -12 -8 0 6 11 4 13 -8 8
-10 -4 -20 0 -26 11 -6 10 -11 12 -11 4 0 -9 -5 -10 -19 -3 -10 6 -22 7 -26 3
-10 -10 -29 -9 -37 3 -5 6 -8 3 -8 -7z"/>
</g>
</svg>
