<?xml version="1.0" encoding="UTF-8" standalone="no"?>
<!DOCTYPE svg PUBLIC "-//W3C//DTD SVG 1.1//EN" "http://www.w3.org/Graphics/SVG/1.1/DTD/svg11.dtd">
<svg version="1.1" xmlns="http://www.w3.org/2000/svg" xmlns:xlink="http://www.w3.org/1999/xlink" preserveAspectRatio="xMidYMid meet" viewBox="0 0 365 80.14" width="365" height="80.14"><defs><path d="M25.77 38.54C22.31 36.24 18.26 35.3 15.19 35.3C10.25 35.3 7.02 37.17 7.02 40.4C7.02 50.27 28.62 45.12 28.56 59.04C28.56 65.45 22.92 69.56 14.69 69.56C9.1 69.56 3.62 67.15 0 63.7C0.2 63.3 1.78 60.15 1.97 59.75C5.54 63.2 10.42 65.18 14.75 65.18C20.28 65.18 23.74 62.93 23.74 59.26C23.79 49.17 2.19 54.54 2.19 40.79C2.19 34.76 7.51 30.86 15.46 30.86C19.9 30.86 24.45 32.29 27.63 34.43C27.26 35.25 25.95 38.13 25.77 38.54Z" id="c3OsdTbvbk"></path><path d="M49.21 40.44L50.04 40.55L50.84 40.71L51.62 40.9L52.38 41.14L53.11 41.42L53.82 41.74L54.5 42.1L55.16 42.5L55.79 42.93L56.39 43.4L56.96 43.91L57.5 44.44L58.01 45.02L58.48 45.62L58.93 46.25L59.33 46.92L59.71 47.61L60.05 48.34L60.35 49.09L60.62 49.87L60.84 50.67L61.03 51.5L61.18 52.35L61.28 53.22L61.35 54.12L61.37 55.04L61.35 55.94L61.28 56.83L61.18 57.69L61.04 58.53L60.85 59.35L60.63 60.15L60.37 60.92L60.07 61.66L59.74 62.37L59.37 63.06L58.96 63.72L58.53 64.35L58.06 64.94L57.55 65.51L57.02 66.04L56.45 66.54L55.86 67L55.24 67.43L54.59 67.83L53.91 68.18L53.21 68.5L52.48 68.77L51.72 69.01L50.94 69.21L50.14 69.36L49.32 69.47L48.48 69.54L47.61 69.56L47.06 69.56L46.52 69.53L46 69.48L45.48 69.42L44.97 69.34L44.47 69.25L43.98 69.13L43.5 69L43.04 68.86L42.58 68.69L42.13 68.52L41.7 68.32L41.27 68.11L40.86 67.89L40.46 67.64L40.07 67.39L39.69 67.12L39.33 66.83L38.97 66.53L38.63 66.22L38.31 65.89L37.99 65.54L37.69 65.19L37.4 64.82L37.12 64.43L36.86 64.04L36.61 63.63L36.37 63.21L36.37 80.03L32.1 80.03L32.1 40.51L36.37 40.51L36.37 46.76L36.61 46.33L36.86 45.92L37.12 45.52L37.4 45.13L37.69 44.75L37.99 44.39L38.3 44.05L38.63 43.72L38.97 43.4L39.32 43.09L39.69 42.81L40.06 42.53L40.45 42.28L40.85 42.03L41.26 41.81L41.68 41.59L42.11 41.4L42.55 41.22L43 41.06L43.46 40.91L43.93 40.78L44.42 40.67L44.91 40.57L45.41 40.49L45.92 40.43L46.44 40.38L46.96 40.36L47.5 40.35L48.37 40.37L49.21 40.44ZM44.06 44.49L42.84 44.87L41.7 45.38L40.66 46.02L39.71 46.79L38.86 47.67L38.13 48.65L37.52 49.74L37.03 50.92L36.67 52.18L36.45 53.52L36.37 54.93L36.45 56.35L36.67 57.7L37.03 58.96L37.52 60.14L38.13 61.23L38.86 62.21L39.71 63.09L40.66 63.85L41.7 64.49L42.84 64.99L44.06 65.37L45.36 65.59L46.73 65.67L48.09 65.59L49.38 65.36L50.6 64.99L51.73 64.48L52.77 63.83L53.71 63.07L54.55 62.19L55.28 61.2L55.9 60.12L56.39 58.94L56.74 57.68L56.96 56.34L57.04 54.93L56.96 53.53L56.74 52.2L56.39 50.94L55.9 49.76L55.28 48.68L54.55 47.69L53.71 46.81L52.77 46.04L51.73 45.39L50.6 44.88L49.38 44.5L48.09 44.26L46.73 44.18L45.36 44.26L44.06 44.49Z" id="b4O5kexHGO"></path><path d="M80.22 40.5L81.16 40.62L82.06 40.8L82.92 41.02L83.74 41.3L84.52 41.62L85.26 41.99L85.97 42.4L86.63 42.86L87.25 43.37L87.83 43.92L88.38 44.5L88.88 45.13L89.34 45.81L89.76 46.51L90.14 47.26L90.49 48.05L90.79 48.87L91.05 49.73L91.26 50.62L91.44 51.54L91.58 52.5L91.68 53.48L91.73 54.5L91.74 55.55L91.72 56.63L68.14 56.63L68.24 57.25L68.37 57.85L68.52 58.43L68.7 58.99L68.9 59.54L69.13 60.07L69.38 60.57L69.66 61.06L69.96 61.52L70.28 61.97L70.62 62.39L70.99 62.79L71.37 63.17L71.78 63.52L72.2 63.86L72.64 64.16L73.11 64.45L73.59 64.7L74.08 64.94L74.6 65.14L75.13 65.33L75.67 65.48L76.23 65.61L76.81 65.71L77.4 65.78L78 65.82L78.61 65.84L79.01 65.83L79.4 65.82L79.79 65.79L80.17 65.75L80.55 65.71L80.92 65.65L81.29 65.59L81.65 65.51L82.02 65.42L82.37 65.33L82.72 65.22L83.07 65.1L83.41 64.98L83.74 64.84L84.07 64.7L84.4 64.54L84.71 64.38L85.03 64.2L85.33 64.02L85.63 63.83L85.93 63.63L86.21 63.41L86.49 63.19L86.77 62.96L87.04 62.72L87.3 62.48L87.55 62.22L89.91 64.74L89.6 65.08L89.28 65.4L88.94 65.71L88.6 66.02L88.25 66.31L87.89 66.59L87.52 66.86L87.14 67.11L86.75 67.36L86.35 67.59L85.94 67.81L85.52 68.02L85.09 68.21L84.66 68.39L84.21 68.56L83.76 68.72L83.3 68.86L82.83 69L82.36 69.11L81.87 69.22L81.38 69.31L80.88 69.39L80.38 69.45L79.86 69.5L79.34 69.54L78.82 69.56L78.29 69.56L77.35 69.54L76.44 69.47L75.56 69.35L74.69 69.18L73.86 68.97L73.05 68.72L72.26 68.42L71.51 68.08L70.79 67.7L70.09 67.28L69.43 66.82L68.8 66.32L68.2 65.78L67.64 65.21L67.12 64.61L66.63 63.97L66.17 63.29L65.76 62.59L65.38 61.85L65.05 61.09L64.76 60.29L64.51 59.47L64.3 58.62L64.14 57.75L64.02 56.85L63.95 55.93L63.92 54.98L63.95 54.04L64.02 53.12L64.14 52.22L64.3 51.34L64.51 50.49L64.76 49.67L65.06 48.88L65.39 48.11L65.77 47.38L66.18 46.67L66.64 46L67.13 45.36L67.66 44.76L68.22 44.18L68.81 43.65L69.44 43.15L70.1 42.69L70.79 42.27L71.52 41.89L72.27 41.55L73.04 41.25L73.85 41L74.68 40.78L75.53 40.62L76.41 40.5L77.31 40.43L78.23 40.4L79.25 40.42L80.22 40.5ZM74.82 44.58L73.33 45.2L71.99 46.04L70.82 47.09L69.83 48.34L69.05 49.77L68.48 51.37L68.14 53.12L87.88 53.12L86.97 51.22L86.02 49.55L85.03 48.09L84 46.87L82.92 45.86L81.81 45.08L80.66 44.52L79.47 44.19L78.23 44.07L76.46 44.2L74.82 44.58Z" id="bmchCAMhJ"></path><path d="M121.89 69.4L117.62 69.4C117.62 59.4 117.62 53.85 117.62 52.74C117.62 47.64 114.55 44.62 109.45 44.62C103.75 44.68 100.24 48.41 99.75 53.89C99.75 54.92 99.75 60.09 99.75 69.4L95.47 69.4L95.47 40.51L99.75 40.51C99.75 44.33 99.75 46.45 99.75 46.87C101.78 42.49 105.67 40.4 110.93 40.35C117.84 40.35 121.89 44.62 121.89 51.58C121.89 53.96 121.89 59.9 121.89 69.4Z" id="a1PTseGN0Y"></path><path d="M150.61 69.4L150.61 63.21L150.39 63.62L150.15 64.02L149.89 64.41L149.63 64.79L149.35 65.15L149.06 65.5L148.76 65.84L148.44 66.16L148.12 66.47L147.78 66.77L147.43 67.05L147.07 67.32L146.7 67.58L146.32 67.82L145.93 68.04L145.52 68.26L145.11 68.45L144.69 68.64L144.25 68.81L143.81 68.96L143.35 69.09L142.89 69.22L142.41 69.32L141.93 69.41L141.44 69.49L140.94 69.54L140.42 69.59L139.9 69.61L139.38 69.62L138.53 69.6L137.71 69.53L136.91 69.43L136.13 69.28L135.36 69.09L134.62 68.87L133.91 68.61L133.21 68.3L132.54 67.97L131.9 67.59L131.28 67.19L130.69 66.75L130.12 66.27L129.59 65.77L129.08 65.23L128.6 64.66L128.16 64.06L127.74 63.44L127.36 62.79L127 62.11L126.69 61.4L126.4 60.67L126.16 59.91L125.94 59.14L125.77 58.34L125.63 57.51L125.53 56.67L125.47 55.81L125.45 54.93L125.47 54.04L125.53 53.18L125.63 52.33L125.77 51.51L125.94 50.7L126.16 49.93L126.4 49.17L126.69 48.44L127 47.74L127.35 47.06L127.74 46.41L128.15 45.79L128.6 45.2L129.07 44.63L129.58 44.1L130.12 43.6L130.68 43.13L131.27 42.69L131.88 42.29L132.53 41.92L133.19 41.59L133.88 41.29L134.6 41.03L135.33 40.81L136.09 40.62L136.87 40.48L137.67 40.38L138.48 40.31L139.32 40.29L139.85 40.3L140.37 40.33L140.88 40.37L141.39 40.43L141.88 40.5L142.36 40.59L142.84 40.7L143.31 40.82L143.76 40.96L144.21 41.11L144.65 41.28L145.08 41.46L145.49 41.66L145.9 41.87L146.29 42.1L146.68 42.34L147.05 42.6L147.41 42.87L147.77 43.16L148.11 43.46L148.43 43.77L148.75 44.1L149.05 44.44L149.34 44.79L149.62 45.16L149.89 45.54L150.14 45.94L150.39 46.34L150.61 46.76L150.61 28.73L154.89 28.73L154.89 69.4L150.61 69.4ZM137.5 44.5L136.27 44.88L135.12 45.39L134.06 46.04L133.1 46.82L132.25 47.71L131.51 48.7L130.88 49.8L130.39 50.99L130.03 52.26L129.8 53.62L129.73 55.04L129.8 56.45L130.03 57.79L130.39 59.05L130.88 60.23L131.51 61.31L132.25 62.3L133.1 63.18L134.06 63.94L135.12 64.58L136.27 65.1L137.5 65.47L138.81 65.7L140.2 65.78L141.57 65.7L142.87 65.47L144.1 65.1L145.24 64.58L146.29 63.94L147.25 63.18L148.1 62.3L148.84 61.31L149.46 60.23L149.95 59.05L150.31 57.79L150.54 56.45L150.61 55.04L150.54 53.62L150.31 52.26L149.95 50.99L149.46 49.8L148.84 48.7L148.1 47.71L147.25 46.82L146.29 46.04L145.24 45.39L144.1 44.88L142.87 44.5L141.57 44.26L140.2 44.18L138.81 44.26L137.5 44.5Z" id="bwPzsL2FC"></path><path d="M163.5 30.12L164.09 31.05L164.31 32.23L164.09 33.41L163.5 34.35L162.62 34.97L161.51 35.19L160.4 34.97L159.52 34.35L158.93 33.41L158.72 32.23L158.93 31.05L159.52 30.12L160.4 29.5L161.51 29.27L162.62 29.5L163.5 30.12Z" id="kdL0fYGny"></path><path d="M194.34 69.4L190.06 69.4C190.06 59.4 190.06 53.85 190.06 52.74C190.06 47.64 186.99 44.62 181.89 44.62C176.19 44.68 172.68 48.41 172.19 53.89C172.19 54.92 172.19 60.09 172.19 69.4L167.91 69.4L167.91 40.51L172.19 40.51C172.19 44.33 172.19 46.45 172.19 46.87C174.22 42.49 178.11 40.4 183.37 40.35C190.28 40.35 194.34 44.62 194.34 51.58C194.34 53.96 194.34 59.9 194.34 69.4Z" id="apVDlJv8r"></path><path d="M211.8 40.37L212.22 40.4L212.63 40.44L213.04 40.49L213.44 40.55L213.83 40.62L214.22 40.7L214.6 40.8L214.97 40.9L215.33 41.02L215.69 41.14L216.04 41.28L216.39 41.42L216.73 41.58L217.06 41.75L217.38 41.92L217.7 42.11L218 42.31L218.3 42.51L218.6 42.73L218.88 42.95L219.16 43.19L219.43 43.43L219.69 43.69L219.95 43.95L220.19 44.22L220.43 44.5L220.66 44.79L220.88 45.09L221.09 45.4L221.3 45.72L221.5 46.04L221.68 46.38L221.68 40.51L225.96 40.51L225.96 66.38L225.62 67.18L225.27 67.96L224.92 68.71L224.56 69.43L224.2 70.13L223.83 70.81L223.46 71.47L223.08 72.1L222.7 72.7L222.31 73.29L221.92 73.85L221.52 74.38L221.12 74.89L220.71 75.38L220.29 75.85L219.87 76.29L219.45 76.7L219.02 77.1L218.58 77.47L218.14 77.81L217.7 78.13L217.25 78.43L216.79 78.7L216.33 78.95L215.86 79.18L215.39 79.38L214.92 79.56L214.43 79.72L213.95 79.85L213.45 79.95L212.96 80.04L212.45 80.1L211.95 80.13L211.43 80.14L211.03 80.14L210.64 80.12L210.25 80.1L209.86 80.07L209.47 80.03L209.09 79.98L208.72 79.93L208.34 79.87L207.97 79.81L207.6 79.73L207.24 79.65L206.88 79.56L206.52 79.47L206.17 79.37L205.82 79.26L205.47 79.15L205.12 79.03L204.78 78.9L204.44 78.76L204.1 78.62L203.76 78.48L203.43 78.32L203.1 78.16L202.77 77.99L202.45 77.82L202.12 77.64L201.8 77.45L201.48 77.26L201.16 77.06L200.84 76.86L200.53 76.65L200.21 76.43L199.9 76.21L199.59 75.98L201.57 72.69L201.82 72.89L202.07 73.09L202.32 73.29L202.58 73.47L202.84 73.66L203.09 73.83L203.35 74L203.61 74.17L203.88 74.33L204.14 74.48L204.41 74.63L204.67 74.77L204.94 74.91L205.22 75.03L205.49 75.16L205.77 75.28L206.05 75.39L206.33 75.49L206.61 75.59L206.9 75.69L207.19 75.78L207.48 75.86L207.78 75.93L208.08 76L208.38 76.07L208.69 76.12L209 76.17L209.31 76.22L209.63 76.26L209.95 76.29L210.27 76.32L210.6 76.34L210.93 76.35L211.27 76.36L211.82 76.35L212.36 76.32L212.88 76.27L213.4 76.2L213.9 76.12L214.39 76.01L214.87 75.89L215.33 75.75L215.78 75.59L216.21 75.41L216.63 75.21L217.04 75L217.43 74.77L217.81 74.52L218.17 74.26L218.51 73.98L218.84 73.69L219.15 73.38L219.45 73.05L219.73 72.71L219.99 72.36L220.23 71.99L220.46 71.6L220.67 71.2L220.86 70.79L221.03 70.36L221.18 69.93L221.31 69.47L221.42 69.01L221.52 68.53L221.59 68.04L221.64 67.54L221.67 67.02L221.68 66.49L221.68 62.11L221.5 62.44L221.31 62.77L221.11 63.09L220.9 63.39L220.68 63.69L220.45 63.98L220.22 64.27L219.98 64.54L219.73 64.8L219.47 65.05L219.2 65.3L218.93 65.53L218.64 65.76L218.35 65.97L218.05 66.18L217.75 66.38L217.44 66.56L217.11 66.74L216.79 66.91L216.45 67.06L216.11 67.21L215.76 67.34L215.4 67.47L215.04 67.58L214.67 67.69L214.29 67.78L213.91 67.86L213.52 67.94L213.12 68L212.72 68.05L212.31 68.09L211.9 68.12L211.48 68.13L211.05 68.14L210.37 68.12L209.7 68.08L209.05 68.01L208.41 67.91L207.78 67.78L207.17 67.62L206.57 67.44L205.99 67.23L205.43 66.99L204.88 66.73L204.35 66.44L203.84 66.13L203.34 65.8L202.87 65.44L202.41 65.06L201.97 64.66L201.55 64.23L201.15 63.79L200.78 63.32L200.42 62.83L200.08 62.33L199.77 61.8L199.48 61.26L199.21 60.69L198.97 60.11L198.75 59.51L198.55 58.9L198.38 58.27L198.23 57.62L198.11 56.95L198.02 56.28L197.95 55.59L197.91 54.88L197.89 54.16L197.91 53.46L197.95 52.76L198.02 52.08L198.11 51.42L198.23 50.77L198.37 50.13L198.54 49.51L198.74 48.91L198.96 48.32L199.2 47.75L199.46 47.19L199.75 46.65L200.06 46.14L200.39 45.64L200.75 45.15L201.12 44.69L201.52 44.25L201.93 43.83L202.37 43.43L202.82 43.06L203.29 42.7L203.78 42.37L204.29 42.06L204.82 41.78L205.36 41.52L205.92 41.28L206.5 41.07L207.09 40.89L207.69 40.73L208.32 40.6L208.95 40.49L209.6 40.41L210.26 40.37L210.94 40.35L211.37 40.35L211.8 40.37ZM209.07 44.42L207.82 44.84L206.67 45.4L205.63 46.11L204.7 46.96L203.89 47.93L203.2 49.01L202.65 50.2L202.25 51.49L201.99 52.87L201.9 54.32L201.99 55.77L202.25 57.14L202.65 58.42L203.2 59.6L203.89 60.68L204.7 61.64L205.63 62.48L206.67 63.19L207.82 63.76L209.07 64.18L210.4 64.43L211.82 64.52L213.22 64.43L214.55 64.18L215.79 63.76L216.93 63.19L217.98 62.48L218.91 61.64L219.72 60.68L220.41 59.6L220.95 58.42L221.35 57.14L221.6 55.77L221.68 54.32L221.6 52.86L221.35 51.47L220.95 50.18L220.41 48.99L219.72 47.9L218.91 46.94L217.98 46.1L216.93 45.39L215.79 44.83L214.55 44.41L213.22 44.16L211.82 44.07L210.4 44.16L209.07 44.42Z" id="brEWi82n3"></path><path d="M276.39 28.73L284.83 28.73L284.83 69.4L276.39 69.4L276.39 28.73Z" id="cm67ruBHg"></path><path d="M306.69 39.75L307.76 39.9L308.78 40.11L309.76 40.37L310.68 40.69L311.56 41.07L312.39 41.49L313.16 41.97L313.89 42.51L314.57 43.09L315.2 43.72L315.78 44.4L316.32 45.13L316.8 45.91L317.23 46.73L317.62 47.59L317.95 48.5L318.24 49.46L318.48 50.45L318.66 51.48L318.8 52.56L318.89 53.67L318.93 54.82L318.92 56.01L318.87 57.23L297.71 57.23L297.83 57.65L297.97 58.06L298.12 58.46L298.29 58.84L298.48 59.21L298.68 59.56L298.89 59.89L299.12 60.22L299.36 60.52L299.62 60.81L299.89 61.09L300.17 61.35L300.47 61.59L300.78 61.81L301.1 62.02L301.43 62.21L301.77 62.39L302.13 62.55L302.49 62.69L302.87 62.81L303.26 62.91L303.65 63L304.06 63.06L304.47 63.11L304.9 63.14L305.33 63.15L305.65 63.15L305.97 63.13L306.29 63.11L306.6 63.07L306.92 63.03L307.23 62.98L307.54 62.92L307.85 62.84L308.15 62.76L308.46 62.67L308.75 62.57L309.05 62.47L309.34 62.35L309.63 62.22L309.92 62.09L310.2 61.94L310.48 61.79L310.75 61.63L311.02 61.46L311.29 61.28L311.55 61.09L311.81 60.9L312.06 60.69L312.3 60.48L312.55 60.26L312.78 60.03L317.22 64.52L316.88 64.89L316.52 65.26L316.14 65.6L315.76 65.94L315.37 66.26L314.96 66.57L314.54 66.87L314.11 67.15L313.67 67.42L313.22 67.68L312.76 67.92L312.29 68.15L311.8 68.36L311.31 68.56L310.81 68.74L310.29 68.91L309.77 69.06L309.23 69.2L308.69 69.32L308.13 69.43L307.57 69.52L307 69.59L306.42 69.65L305.82 69.69L305.22 69.72L304.62 69.73L303.54 69.7L302.5 69.62L301.49 69.49L300.52 69.31L299.58 69.08L298.67 68.8L297.8 68.48L296.97 68.11L296.17 67.69L295.41 67.23L294.69 66.73L294.02 66.18L293.38 65.6L292.78 64.97L292.23 64.31L291.72 63.61L291.26 62.87L290.84 62.1L290.46 61.29L290.14 60.45L289.86 59.57L289.63 58.67L289.45 57.74L289.32 56.77L289.24 55.78L289.21 54.76L289.24 53.73L289.32 52.72L289.45 51.74L289.64 50.79L289.87 49.88L290.16 48.99L290.49 48.14L290.87 47.32L291.3 46.54L291.77 45.79L292.28 45.09L292.84 44.42L293.43 43.79L294.07 43.2L294.74 42.65L295.46 42.14L296.21 41.68L296.99 41.26L297.81 40.89L298.66 40.56L299.54 40.28L300.46 40.05L301.4 39.87L302.37 39.74L303.37 39.66L304.4 39.63L305.57 39.66L306.69 39.75ZM301.15 46.63L299.85 47.58L298.8 48.85L298.02 50.42L297.54 52.24L310.97 52.24L310.06 50.28L309.08 48.68L308.03 47.43L306.91 46.54L305.71 46.01L304.45 45.83L302.69 46.03L301.15 46.63Z" id="b1VzMepyP6"></path><path d="M340.61 39.58C340.61 40.37 340.61 46.73 340.61 47.53C334.58 46.98 330.85 50.21 330.85 55.2C330.85 56.15 330.85 60.88 330.85 69.4L322.41 69.4L322.41 39.91L330.85 39.91L330.85 45.23C334.43 41.5 337.68 39.62 340.61 39.58Z" id="a1l0P825UP"></path><path d="M357.33 69.78C352.07 69.78 348.06 66.77 348.06 60.68C348.06 59.77 348.06 55.22 348.06 47.03L343.95 47.03L343.95 41.22L348.06 41.22L348.06 33.11L356.45 33.11L356.45 41.22L364.45 41.22L364.45 47.09L356.45 47.09C356.45 54.39 356.45 58.45 356.45 59.26C356.45 61.73 357.49 62.71 359.3 62.66C360.4 62.66 361.71 62.27 363.25 61.56C363.36 61.97 363.95 64.04 365 67.75C361.71 69.11 359.15 69.78 357.33 69.78Z" id="b27B1yIvl0"></path><path d="M246.95 31.03L230.29 69.4L239.22 69.4L242.24 61.94L253.31 61.94L250.86 54.98L245.09 54.98L251.17 40.07L257.2 54.98L257.2 54.98L262.42 67.94L262.42 67.94L263.01 69.4L272.28 69.4L255.89 31.03L246.95 31.03Z" id="cdFjRwbw4"></path><path d="M161.71 27.57C159.09 27.57 156.97 29.69 156.97 32.31C156.97 34.93 159.09 37.05 161.71 37.05C164.33 37.05 166.45 34.93 166.45 32.31C166.45 29.69 164.33 27.57 161.71 27.57Z" id="d1mJKC6BPb"></path><path d="M161.71 22.48C161.71 22.48 161.71 22.49 161.71 22.49C166.25 22.8 169.87 26.47 170.11 31.03C170.53 31.03 173.92 31.03 174.34 31.03C174.1 24.14 168.58 18.59 161.71 18.27C161.71 19.11 161.71 22.06 161.71 22.48Z" id="a3yPSI2SWE"></path><path d="M184.05 31.03C183.47 19.21 173.68 9.77 161.72 9.77C161.72 10.2 161.72 13.57 161.72 13.99C171.35 13.99 179.25 21.54 179.82 31.03C180.66 31.03 183.62 31.03 184.05 31.03Z" id="bVfGUSV7t"></path><path d="M161.71 4.23C176.53 5.04 188.56 16.47 190.3 31.03C190.72 31.03 194.12 31.03 194.55 31.03C192.78 14.14 178.86 0.82 161.71 0C161.71 0.85 161.71 3.81 161.71 4.23Z" id="e1XvtCa7ji"></path></defs><g><g><g><use xlink:href="#c3OsdTbvbk" opacity="1" fill="#292944" fill-opacity="1"></use><g><use xlink:href="#c3OsdTbvbk" opacity="1" fill-opacity="0" stroke="#000000" stroke-width="1" stroke-opacity="0"></use></g></g><g><use xlink:href="#b4O5kexHGO" opacity="1" fill="#292944" fill-opacity="1"></use><g><use xlink:href="#b4O5kexHGO" opacity="1" fill-opacity="0" stroke="#000000" stroke-width="1" stroke-opacity="0"></use></g></g><g><use xlink:href="#bmchCAMhJ" opacity="1" fill="#292944" fill-opacity="1"></use><g><use xlink:href="#bmchCAMhJ" opacity="1" fill-opacity="0" stroke="#000000" stroke-width="1" stroke-opacity="0"></use></g></g><g><use xlink:href="#a1PTseGN0Y" opacity="1" fill="#292944" fill-opacity="1"></use><g><use xlink:href="#a1PTseGN0Y" opacity="1" fill-opacity="0" stroke="#000000" stroke-width="1" stroke-opacity="0"></use></g></g><g><use xlink:href="#bwPzsL2FC" opacity="1" fill="#292944" fill-opacity="1"></use><g><use xlink:href="#bwPzsL2FC" opacity="1" fill-opacity="0" stroke="#000000" stroke-width="1" stroke-opacity="0"></use></g></g><g><use xlink:href="#kdL0fYGny" opacity="1" fill="#292944" fill-opacity="1"></use><g><use xlink:href="#kdL0fYGny" opacity="1" fill-opacity="0" stroke="#000000" stroke-width="1" stroke-opacity="0"></use></g></g><g><use xlink:href="#apVDlJv8r" opacity="1" fill="#292944" fill-opacity="1"></use><g><use xlink:href="#apVDlJv8r" opacity="1" fill-opacity="0" stroke="#000000" stroke-width="1" stroke-opacity="0"></use></g></g><g><use xlink:href="#brEWi82n3" opacity="1" fill="#292944" fill-opacity="1"></use><g><use xlink:href="#brEWi82n3" opacity="1" fill-opacity="0" stroke="#000000" stroke-width="1" stroke-opacity="0"></use></g></g><g><use xlink:href="#cm67ruBHg" opacity="1" fill="#ff3939" fill-opacity="1"></use><g><use xlink:href="#cm67ruBHg" opacity="1" fill-opacity="0" stroke="#000000" stroke-width="1" stroke-opacity="0"></use></g></g><g><use xlink:href="#b1VzMepyP6" opacity="1" fill="#ff3939" fill-opacity="1"></use><g><use xlink:href="#b1VzMepyP6" opacity="1" fill-opacity="0" stroke="#000000" stroke-width="1" stroke-opacity="0"></use></g></g><g><use xlink:href="#a1l0P825UP" opacity="1" fill="#ff3939" fill-opacity="1"></use><g><use xlink:href="#a1l0P825UP" opacity="1" fill-opacity="0" stroke="#000000" stroke-width="1" stroke-opacity="0"></use></g></g><g><use xlink:href="#b27B1yIvl0" opacity="1" fill="#ff3939" fill-opacity="1"></use><g><use xlink:href="#b27B1yIvl0" opacity="1" fill-opacity="0" stroke="#000000" stroke-width="1" stroke-opacity="0"></use></g></g><g><use xlink:href="#cdFjRwbw4" opacity="1" fill="#ff3939" fill-opacity="1"></use><g><use xlink:href="#cdFjRwbw4" opacity="1" fill-opacity="0" stroke="#000000" stroke-width="1" stroke-opacity="0"></use></g></g><g><use xlink:href="#d1mJKC6BPb" opacity="1" fill="#ff3939" fill-opacity="1"></use><g><use xlink:href="#d1mJKC6BPb" opacity="1" fill-opacity="0" stroke="#000000" stroke-width="1" stroke-opacity="0"></use></g></g><g><use xlink:href="#a3yPSI2SWE" opacity="1" fill="#ff3939" fill-opacity="1"></use><g><use xlink:href="#a3yPSI2SWE" opacity="1" fill-opacity="0" stroke="#000000" stroke-width="1" stroke-opacity="0"></use></g></g><g><use xlink:href="#bVfGUSV7t" opacity="1" fill="#ff3939" fill-opacity="1"></use><g><use xlink:href="#bVfGUSV7t" opacity="1" fill-opacity="0" stroke="#000000" stroke-width="1" stroke-opacity="0"></use></g></g><g><use xlink:href="#e1XvtCa7ji" opacity="1" fill="#ff3939" fill-opacity="1"></use><g><use xlink:href="#e1XvtCa7ji" opacity="1" fill-opacity="0" stroke="#000000" stroke-width="1" stroke-opacity="0"></use></g></g></g></g></svg>