<?xml version="1.0" encoding="utf-8"?>
<!-- Generator: Adobe Illustrator 17.1.0, SVG Export Plug-In . SVG Version: 6.00 Build 0)  -->
<!DOCTYPE svg PUBLIC "-//W3C//DTD SVG 1.1//EN" "http://www.w3.org/Graphics/SVG/1.1/DTD/svg11.dtd">
<svg version="1.1" id="Back" xmlns="http://www.w3.org/2000/svg" xmlns:xlink="http://www.w3.org/1999/xlink" x="0px" y="0px"
	 viewBox="0 0 1600 1201" enable-background="new 0 0 1600 1201" xml:space="preserve">
<g>
	<g>
		<path fill="#292944" d="M402.13,585.993l-4.788,10.562c-8.872-5.915-19.293-8.308-27.179-8.308
			c-12.674,0-20.983,4.788-20.983,13.096c0,25.349,55.485,12.111,55.344,47.88c0,16.477-14.505,27.038-35.629,27.038
			c-14.364,0-28.447-6.196-37.741-15.068l5.069-10.139c9.154,8.871,21.687,13.941,32.812,13.941
			c14.224,0,23.096-5.774,23.096-15.209c0.141-25.912-55.344-12.111-55.344-47.458c0-15.49,13.66-25.489,34.079-25.489
			C382.274,576.839,393.963,580.501,402.13,585.993z"/>
		<path fill="#292944" d="M488.808,638.943c0,21.969-14.364,37.319-35.347,37.319c-13.238,0-23.377-6.055-28.869-16.336v43.233
			h-10.985V601.625h10.985v16.054c5.492-10.421,15.631-16.477,28.587-16.477C474.163,601.202,488.808,616.693,488.808,638.943z
			 M477.684,638.661c0-15.913-10.984-27.601-26.475-27.601c-15.631,0-26.615,11.548-26.615,27.601
			c0,16.195,10.984,27.602,26.615,27.602C466.699,666.263,477.684,654.716,477.684,638.661z"/>
		<path fill="#292944" d="M566.768,643.027h-60.554c1.971,14.505,12.533,23.659,26.898,23.659c9.154,0,17.181-3.239,22.954-9.294
			l6.055,6.478c-7.041,7.886-17.462,12.392-29.854,12.392c-21.828,0-36.896-15.35-36.896-37.459
			c0-22.109,15.209-37.459,36.755-37.459C556.065,601.202,567.895,617.819,566.768,643.027z M556.911,634.014
			c-0.704-14.223-10.28-23.236-24.785-23.236c-14.082,0-24.222,9.154-25.912,23.236H556.911z"/>
		<path fill="#292944" d="M644.3,630.071v45.768h-10.984v-42.81c0-13.097-7.886-20.842-20.983-20.842
			c-14.646,0.141-23.659,9.717-24.926,23.799v39.854h-10.984v-74.214h10.984v16.335c5.211-11.266,15.209-16.617,28.728-16.758
			C633.879,601.202,644.3,612.187,644.3,630.071z"/>
		<path fill="#292944" d="M729.061,675.839h-10.983v-15.913c-5.493,10.421-15.632,16.477-28.869,16.477
			c-21.124,0-35.77-15.631-35.77-37.741c0-22.25,14.646-37.6,35.628-37.6c13.237,0,23.517,6.055,29.01,16.617v-46.331h10.983
			V675.839z M718.077,638.943c0-16.194-11.125-27.883-26.757-27.883c-15.772,0-26.898,11.689-26.898,27.883
			c0,16.054,11.125,27.602,26.898,27.602C706.953,666.545,718.077,654.997,718.077,638.943z"/>
		<path fill="#292944" d="M753.256,580.36c0,4.366-3.098,7.605-7.182,7.605c-4.084,0-7.182-3.24-7.182-7.605
			c0-4.365,3.098-7.604,7.182-7.604C750.158,572.755,753.256,575.995,753.256,580.36z M740.722,675.839v-74.214h10.843v74.214
			H740.722z"/>
		<path fill="#292944" d="M830.402,630.071v45.768h-10.983v-42.81c0-13.097-7.887-20.842-20.984-20.842
			c-14.646,0.141-23.659,9.717-24.926,23.799v39.854h-10.983v-74.214h10.983v16.335c5.212-11.266,15.209-16.617,28.729-16.758
			C819.982,601.202,830.402,612.187,830.402,630.071z"/>
		<path fill="#292944" d="M911.643,668.094c0,21.687-14.786,35.347-37.319,35.347c-11.688-0.141-21.405-3.943-30.418-10.703
			l5.07-8.449c7.322,6.055,15.068,9.294,24.926,9.435c16.195,0,26.757-9.858,26.757-25.349V657.11
			c-5.211,9.857-14.787,15.49-27.321,15.49c-19.996,0-33.798-14.787-33.798-35.91c0-20.701,13.66-35.347,33.516-35.488
			c12.675,0,22.251,5.633,27.603,15.491v-15.068h10.983V668.094z M900.66,637.112c0-15.491-10.562-26.334-25.349-26.334
			c-14.927,0-25.348,10.984-25.489,26.334c0.141,15.209,10.562,26.194,25.489,26.194C890.098,663.306,900.66,652.321,900.66,637.112
			z"/>
		<path fill="#FF3939" d="M1041.195,675.839V571.347h21.687v104.492H1041.195z"/>
		<path fill="#FF3939" d="M1150.325,644.576h-54.358c2.535,9.576,9.857,15.209,19.575,15.209c7.182,0,13.941-2.817,19.152-8.027
			l11.408,11.548c-7.605,8.449-18.73,13.378-32.39,13.378c-24.222,0-39.572-15.491-39.572-38.445
			c0-23.377,15.913-38.868,39.009-38.868C1139.763,599.371,1152.156,616.975,1150.325,644.576z M1130.046,631.761
			c-0.282-9.999-6.759-16.476-16.758-16.476c-9.576,0-16.054,6.478-17.744,16.476H1130.046z"/>
		<path fill="#FF3939" d="M1181.108,613.736c5.21-9.295,13.8-14.364,25.066-14.505v20.42c-15.49-1.408-25.066,6.9-25.066,19.715
			v36.473h-21.688v-75.763h21.688V613.736z"/>
		<path fill="#FF3939" d="M1268.845,671.614c-5.633,3.239-12.675,5.211-19.716,5.211c-13.518,0-23.799-7.745-23.799-23.377v-35.065
			h-10.562v-14.927h10.562v-20.842h21.545v20.842h20.561v15.068h-20.561v31.263c0,6.337,2.677,8.872,7.324,8.731
			c2.817,0,6.196-0.985,10.139-2.816L1268.845,671.614z"/>
	</g>
	<polygon fill="#FF3939" points="988.53,577.262 965.576,577.262 922.765,675.839 945.72,675.839 953.465,656.687 981.909,656.687 
		975.619,638.802 960.787,638.802 976.419,600.498 991.91,638.802 991.896,638.802 1005.319,672.086 1005.319,672.086 
		1006.837,675.839 1030.636,675.839 	"/>
	<circle fill="#FF3939" cx="746.585" cy="580.559" r="12.176"/>
	<g>
		<g>
			<path fill="#FF3939" d="M746.589,544.49v10.81c0,0.011-0.003,0.021-0.003,0.032c11.66,0.789,20.967,10.217,21.569,21.929h10.873
				C778.412,559.57,764.229,545.304,746.589,544.49z"/>
		</g>
		<g>
			<path fill="#FF3939" d="M793.1,577.262h10.865c-1.479-30.359-26.639-54.603-57.358-54.603v10.843
				C771.347,533.502,791.634,552.886,793.1,577.262z"/>
		</g>
		<g>
			<path fill="#FF3939" d="M746.589,497.559v10.868c38.065,2.063,68.97,31.442,73.433,68.834h10.928
				C826.417,533.879,790.642,499.653,746.589,497.559z"/>
		</g>
	</g>
</g>
</svg>
