<svg xmlns="http://www.w3.org/2000/svg" xmlns:xlink="http://www.w3.org/1999/xlink" width="140" height="21" viewBox="0 0 140 21">
    <defs>
        <path id="a" d="M0 .068v13.025h22.111V.068z"/>
    </defs>
    <g fill="none" fill-rule="evenodd">
        <g transform="translate(0 7.197)">
            <mask id="b" fill="#fff">
                <use xlink:href="#a"/>
            </mask>
            <path fill="#9AA8BA" d="M4.691 1.277c-.15 0-.302.011-.46.035-1.62.247-2.698 1.257-2.953 2.771-.214 1.27.09 2.487.902 3.616 1.533 2.132 4.739 3.657 6.977 4.01 4.137.652 9.512-.78 11.326-4.717.831-1.806.379-3.743-1.153-4.937-.945-.736-2.9-1.585-5.366 1.015-.894.943-1.977 1.024-2.918.975-1.35-.12-2.383-.817-3.383-1.494-1.004-.677-1.887-1.274-2.972-1.274m6.651 11.816c-.765 0-1.558-.06-2.374-.19-2.056-.324-5.82-1.789-7.77-4.496C.19 7.005-.184 5.483.086 3.881.429 1.85 1.91.441 4.048.116 5.821-.154 7.16.751 8.341 1.55c.912.616 1.774 1.199 2.788 1.29.96.047 1.496-.115 1.957-.602.843-.888 3.835-3.593 6.988-1.136 1.991 1.552 2.584 4.062 1.507 6.397-1.37 2.973-5.2 5.595-10.239 5.595" mask="url(#b)"/>
        </g>
        <path fill="#9AA8BA" d="M21.398 8.44a.607.607 0 0 1-.591-.479c-.192-.9-.703-1.695-1.478-2.299-.945-.737-2.9-1.585-5.364 1.015-.896.944-1.979 1.022-2.918.974-1.35-.119-2.385-.817-3.384-1.492C6.52 5.387 5.536 4.72 4.23 4.919 2.61 5.166 1.534 6.176 1.28 7.691a.606.606 0 0 1-1.194-.202C.43 5.456 1.91 4.049 4.05 3.724c1.772-.269 3.11.635 4.291 1.432.912.617 1.774 1.2 2.79 1.289.959.048 1.495-.114 1.956-.6.843-.887 3.834-3.594 6.987-1.137 1.003.78 1.665 1.819 1.917 3.001a.604.604 0 0 1-.592.731"/>
        <path fill="#9AA8BA" d="M21.398 4.765a.605.605 0 0 1-.591-.48c-.192-.9-.703-1.695-1.478-2.297-.945-.737-2.9-1.585-5.364 1.015-.896.944-1.979 1.021-2.918.974-1.35-.12-2.385-.818-3.384-1.494-1.142-.77-2.127-1.436-3.432-1.238-1.621.247-2.697 1.256-2.952 2.77a.606.606 0 0 1-1.194-.202C.43 1.781 1.91.373 4.05.048c1.772-.27 3.11.635 4.291 1.433.912.617 1.774 1.199 2.79 1.29.959.047 1.495-.115 1.956-.6.843-.889 3.834-3.595 6.987-1.138 1.003.78 1.665 1.82 1.917 3a.606.606 0 0 1-.592.732M34.96 12.367V8.641h7.32v6.327c0 1.984-.135 2.735-2.146 3.86-1.1.59-2.6 1.073-4.798 1.073-5.95 0-8.846-3.431-8.846-9.732 0-6.246 3.11-9.731 9.65-9.731 2.253 0 4.182.43 5.47.965v4.182c-2.146-.857-3.647-1.099-5.47-1.099-3.324 0-4.289 2.306-4.289 5.683 0 3.405.75 5.683 3.485 5.683.482 0 .992-.08 1.42-.188.242-.052.59-.16.59-.696v-2.6h-2.385zM50.026 9.339c-1.288 0-1.69 1.26-1.69 3.35 0 2.092.402 3.352 1.69 3.352 1.286 0 1.688-1.26 1.688-3.352 0-2.09-.402-3.35-1.688-3.35m0 10.562c-4.396 0-6.676-2.815-6.676-7.212 0-4.396 2.28-7.212 6.676-7.212 4.395 0 6.675 2.816 6.675 7.212 0 4.397-2.28 7.212-6.675 7.212M57.825.117h4.933v14.45c0 1.071.455 1.18.993 1.18h.776v3.59c-.321.161-1.608.349-2.68.349-2.95 0-4.022-1.125-4.022-4.745V.117zM72.27 9.339c-1.287 0-1.848 1.098-1.848 3.35s.561 3.352 1.849 3.352c1.286 0 1.85-1.1 1.85-3.352s-.564-3.35-1.85-3.35zm6.783 10.186h-4.075c-.214-.509-.269-1.447-.269-1.607-.48.857-2.09 1.983-3.805 1.983-4.129 0-5.47-2.815-5.47-7.212 0-4.396 1.341-7.212 5.201-7.212 1.824 0 2.95.752 3.485 1.396V.117h4.933v19.408zM86.504 11.805v3.887a37.12 37.12 0 0 0 2.01.053c1.93 0 2.467-.858 2.467-1.983 0-1.126-.804-1.957-2.734-1.957h-1.743zm0-7.158V8.08h.992c1.823 0 2.627-.617 2.627-1.743 0-1.126-.59-1.742-2.413-1.742-.536 0-.938.027-1.206.053zm-5.2 14.824V.975c.642-.162 4.637-.43 6.246-.43 5.575 0 7.882 1.61 7.882 5.254 0 1.877-1.207 3.084-2.494 3.566 1.876.537 3.405 2.386 3.405 4.745 0 3.431-2.01 5.683-8.9 5.683-2.682 0-4.745-.16-6.14-.322zM102.373 11.725v.267c.107-.107.241-.188.858-.348l.992-.241c.964-.242 1.313-.617 1.313-1.26 0-.536-.456-.912-1.046-.912-1.393 0-2.117.992-2.117 2.494zm1.233 2.734c-.536.107-.75.348-.75.778 0 .428.349.884 1.26.884 1.554 0 4.37-.617 6.219-1.368v3.86c-1.287.725-3.485 1.288-6.22 1.288-4.557 0-6.674-2.815-6.674-7.212 0-4.396 2.787-7.212 7.076-7.212 3.968 0 5.899 1.985 5.899 4.398 0 2.573-1.475 3.404-4.746 4.128l-2.064.456zM119.234 13.413c-.108.107-.377.188-.59.242l-.886.268c-.91.267-1.259.696-1.259 1.447 0 .643.509 1.1 1.153 1.1.858 0 1.582-.644 1.582-2.011v-1.046zm4.932 6.113h-4.075c-.214-.51-.268-1.448-.268-1.609-.644 1.072-2.199 1.93-3.914 1.93-2.949 0-4.29-1.77-4.29-3.968 0-2.359 1.288-3.806 4.612-4.53l1.957-.429c.803-.187 1.046-.483 1.046-.965 0-.429-.536-.697-1.448-.697-1.93 0-4.022.536-5.148 1.019V6.363c1.341-.483 3.11-.885 5.738-.885 3.323 0 5.79 1.207 5.79 5.229v8.819zM138.957 7.891c.375.992.482 2.25.482 3.807v7.827h-4.931v-7.077c0-1.126-.108-1.85-.297-2.306-.24-.59-.643-.75-1.179-.75-1.234 0-1.876.698-1.876 3.217v6.916h-4.933V5.853h4.074c.215.51.27 1.448.27 1.61.456-.886 2.17-1.985 4.047-1.985 2.573 0 3.753.858 4.343 2.413"/>
    </g>
</svg>
