<svg xmlns="http://www.w3.org/2000/svg" width="154" height="36" viewBox="0 0 154 36">
    <g fill="#9AA8BA" fill-rule="evenodd">
        <path d="M149.945 19.1c-.271-1.584-1.312-2.4-2.942-2.4-1.63 0-2.67.816-2.942 2.4h5.884zm-2.399 8.282c-3.982 0-6.924-2.942-6.924-6.925 0-3.71 2.67-6.924 6.653-6.924 4.526 0 6.381 3.44 6.381 7.196v.814c0 .272-.27.272-.27.272h-9.053c.271 1.584 1.584 2.67 3.213 2.67h4.255c.271 0 .271.272.271.272v2.399c0 .271-.27.271-.27.271l-4.256-.045zM86.265 24.169l1.856-2.127c0-.272.27-.272.543 0 1.584 1.085 3.213 1.855 5.069 1.855 1.584 0 2.399-.543 2.399-1.584 0-1.086-.543-1.584-3.44-2.127-3.44-.815-5.838-1.856-5.838-5.341 0-3.213 2.67-5.34 6.11-5.34 2.398 0 4.526.814 6.11 2.127.27 0 .27.271 0 .543l-1.584 2.127c0 .272-.272.272-.544 0-1.313-1.086-2.941-1.584-4.254-1.584-1.585 0-2.128.815-2.128 1.584 0 1.086.816 1.584 3.712 2.399 3.44.815 5.612 2.127 5.612 5.34 0 3.44-2.67 5.341-6.382 5.341-2.67 0-5.068-.814-7.196-2.67-.317 0-.317-.272-.045-.543M101.472 20.457c0-3.71 2.942-6.924 6.925-6.924 2.399 0 3.983.814 5.069 2.127v.543l-1.856 1.856c0 .271-.271.271-.543 0-.815-.815-1.584-1.313-2.67-1.313-1.856 0-3.213 1.584-3.213 3.711 0 2.128 1.312 3.712 3.44 3.712 1.085 0 1.854-.543 2.941-1.313h.543l1.856 1.855v.544c-1.313 1.313-2.67 2.127-5.34 2.127-4.256 0-7.152-3.213-7.152-6.925M125.143 20.457c0-2.127-1.313-3.71-3.44-3.71s-3.44 1.583-3.44 3.71c0 1.856 1.313 3.712 3.44 3.712 2.399 0 3.44-1.856 3.44-3.712m-10.636 0c0-3.982 3.213-6.924 7.196-6.924 3.983 0 7.196 2.942 7.196 6.924 0 3.712-3.213 6.925-7.196 6.925-3.983 0-7.196-3.213-7.196-6.925M131.298 13.804h3.214c.271 0 .271 0 .271.272v2.399c.815-1.856 1.856-2.942 3.983-2.942.272 0 .272 0 .272.271v3.44c0 .271 0 .271-.272.271-2.399 0-3.983 1.585-3.983 4.798v4.526c0 .272 0 .272-.271.272h-3.214c-.271 0-.271 0-.271-.272V14.076c0-.272 0-.272.271-.272M45.531 11.949c-.814 0-1.584.271-2.127.543-.543.271-.815.814-.815 1.584 0 .814.272 1.312.815 1.584.543.271 1.584.814 3.44 1.312 1.855.543 3.213 1.087 3.983 1.856.769.77 1.312 1.856 1.312 3.44 0 1.584-.543 2.67-1.584 3.711-1.04 1.041-2.67 1.313-4.526 1.313-2.67 0-5.069-.815-6.925-2.67v-.272l1.584-1.856h.272c1.584 1.313 3.44 2.127 5.34 2.127 1.087 0 1.585-.271 2.128-.543.543-.543.815-1.086.815-1.584 0-.815-.272-1.086-.815-1.584-.543-.272-1.313-.815-2.67-1.086-1.358-.272-2.128-.543-2.942-.815-.543-.272-1.313-.543-1.856-1.086-1.086-.815-1.584-1.856-1.584-3.44 0-1.584.543-2.942 1.856-3.711 1.086-.815 2.67-1.313 4.254-1.313 1.086 0 2.127.272 3.213.543 1.087.272 1.856.815 2.67 1.313 0 0 .272.271 0 .271l-1.312 1.856s-.271.272-.543 0c0-.543-.543-.815-1.312-1.086-.815-.181-1.856-.407-2.67-.407M57.525 19.371h7.468c0-1.086-.272-1.856-1.086-2.67-.815-.543-1.584-.815-2.67-.815-1.087 0-1.856.272-2.671.815-.498.814-1.04 1.63-1.04 2.67zm3.983 7.74c-1.856 0-3.44-.544-4.798-1.856-1.312-1.086-1.855-2.67-1.855-4.798 0-2.127.543-3.711 1.855-5.069 1.313-1.312 2.942-1.855 4.798-1.855 1.856 0 3.213.543 4.526 1.584 1.312 1.086 1.856 2.67 1.856 4.526v1.584c0 .271-.272.271-.272.271H57.48c0 1.087.543 1.856 1.312 2.399a5.09 5.09 0 0 0 2.67.815h4.255c.272 0 .272.271.272.271v1.856c0 .272-.272.272-.272.272h-4.21zM73.23 27.11h-2.399c-.271 0-.271 0-.271-.271V9.007c0-.272 0-.272.271-.272h2.127c.272 0 .272 0 .272.272v17.832c.272 0 0 .272 0 .272M82.282 10.59c-.543 0-1.086.272-1.312.544-.272.271-.544.815-.544 1.584v1.312h3.214c.272 0 .272 0 .272.272v1.584c0 .272 0 .272-.272.272h-3.214v10.364c0 .272 0 .272-.271.272h-2.127c-.272 0-.272 0-.272-.272V16.384h-1.313c-.271 0-.271 0-.271-.272v-1.855c0-.272 0-.272.271-.272h1.313v-1.312c0-1.313.543-2.4 1.313-3.214.814-.814 1.855-1.312 2.941-1.312h1.584c.272 0 .272 0 .272.271v1.856c0 .271 0 .271-.272.271.046.046-1.312.046-1.312.046M15.434 28.695c-5.839 0-10.908-4.798-10.908-10.908 0-6.11 4.798-10.907 10.908-10.907 6.11 0 10.907 4.797 10.907 10.907S21.59 28.695 15.434 28.695M29.01 7.649L17.29.996c-.543-.272-1.086-.543-1.855-.543-.544 0-1.313.271-1.856.543L1.856 7.649C.769 8.464 0 9.776 0 11.09v13.578c0 1.312.815 2.67 1.856 3.213l11.722 6.653c.543.272 1.312.543 1.856.543.543 0 1.312-.271 1.855-.543l11.722-6.653c1.087-.815 1.856-1.856 1.856-3.213V11.089c.272-1.313-.498-2.625-1.856-3.44"/>
        <path d="M15.434 8.735v9.052L7.423 21.77c1.584 2.942 4.526 5.069 8.237 5.069 5.069 0 9.052-3.983 9.052-9.052-.226-5.07-4.21-9.052-9.278-9.052"/>
    </g>
</svg>
