<svg xmlns="http://www.w3.org/2000/svg" width="121" height="44" viewBox="0 0 121 44">
    <g fill="#9AA8BA" fill-rule="evenodd">
        <path d="M8.794 0L0 27.067l23.03 16.725 23.031-16.725L37.267 0H8.794zM1.6 26.54L9.787 1.362h26.487l8.187 25.176-21.43 15.565L1.6 26.539z"/>
        <path d="M31.13 21.914l-9.375-3.201c-.334-.097-2.47-.774-3.033-2.462-.317-.959-.062-1.988.774-3.07.624-.808 1.574-1.248 2.76-1.283 1.909-.044 4.125 1.011 4.995 2.031a.674.674 0 0 1-.079.959.674.674 0 0 1-.958-.08c-.563-.659-2.366-1.591-3.922-1.556-.774.018-1.346.273-1.715.747-.536.704-.73 1.31-.554 1.812.3.888 1.67 1.46 2.128 1.583l.035.009 7.59 2.594v-8.548c-1.074-.316-3.852-1.055-6.737-1.055-2.884 0-5.663.73-6.736 1.055v4.177a.677.677 0 0 1-.677.677.683.683 0 0 1-.677-.677v-5.162l.457-.158c.15-.053 3.747-1.266 7.633-1.266 3.896 0 7.484 1.222 7.633 1.275l.457.158v11.44zM23.03 32.642l-.29-.132a31.515 31.515 0 0 1-3.799-2.163c-2.664-1.785-4.01-3.447-4.01-4.925v-7.545l9.375 3.193c.334.096 2.47.773 3.033 2.462.317.958.062 1.987-.773 3.069-.625.809-1.574 1.248-2.762 1.284h-.123c-1.882 0-4.018-1.038-4.871-2.04a.674.674 0 0 1 .079-.959.674.674 0 0 1 .958.08c.563.659 2.375 1.6 3.931 1.556.765-.018 1.345-.273 1.715-.748.536-.695.72-1.31.563-1.811-.29-.888-1.636-1.451-2.137-1.592l-.035-.009-7.59-2.585v5.637c0 1.802 4.01 4.396 6.737 5.724 2.717-1.328 6.735-3.922 6.735-5.724v-1.02c0-.379.308-.678.678-.678.369 0 .677.308.677.678v1.02c0 1.486-1.346 3.139-4.01 4.924a31.5 31.5 0 0 1-3.8 2.163l-.28.141zM58.24 18.52a2.748 2.748 0 0 0-.65-.836c-.22-.167-.625-.387-1.258-.387-1.108 0-1.882.686-1.882 1.724 0 .43.115.686.422.967.334.334.757.519 1.179.703l1.072.467c.651.28 1.258.589 1.724 1.055.572.571.809 1.222.809 2.031 0 2.067-1.53 3.438-3.544 3.438-.738 0-1.662-.15-2.436-.905-.554-.537-.888-1.31-1.037-1.979l1.204-.334c.088.59.352 1.09.669 1.424.483.484 1.037.625 1.609.625 1.53 0 2.251-1.09 2.251-2.216 0-.501-.15-.941-.554-1.31-.316-.3-.756-.502-1.345-.774l-1.003-.466c-.43-.203-.985-.44-1.495-.924-.492-.466-.773-.993-.773-1.829 0-1.732 1.327-2.884 3.139-2.884.686 0 1.24.14 1.794.501.457.3.835.756 1.09 1.24l-.985.668zM67.324 16.303c1.126 0 2.067.132 2.823.792.826.703 1.029 1.697 1.029 2.4 0 1.575-.994 3.14-3.544 3.14h-1.09v4.872h-1.24V16.303h2.022zm-.791 5.153h1.02c1.477 0 2.365-.738 2.365-2.03 0-1.777-1.662-1.944-2.47-1.944h-.924l.009 3.974zM82.115 17.482h-4.564v3.324h4.432v1.178h-4.432v4.344h4.564v1.17h-5.813V16.303h5.813zM87.752 27.498v-11.66l8.732 9.145v-8.67h1.24v11.695l-8.732-9.146v8.645zM106.72 17.482v10.016h-1.24V17.482h-2.718v-1.17h6.684v1.17zM117.51 16.822a2.714 2.714 0 0 0-2.023.87 2.848 2.848 0 0 0-.844 2.067c0 .818.281 1.513.844 2.093a2.73 2.73 0 0 0 2.049.862c.791 0 1.477-.281 2.04-.862.563-.58.844-1.275.844-2.093 0-.44-.114-.888-.334-1.354-.22-.44-.51-.783-.87-1.046a2.909 2.909 0 0 0-1.707-.537zm3.464 2.937a3.36 3.36 0 0 1-1.002 2.445c-.669.677-1.486 1.011-2.436 1.011a3.333 3.333 0 0 1-2.445-1.011 3.33 3.33 0 0 1-1.002-2.453c0-.537.105-1.02.325-1.451a3.39 3.39 0 0 1 .923-1.188c.642-.527 1.363-.791 2.164-.791a3.36 3.36 0 0 1 1.442.299 3.226 3.226 0 0 1 1.477 1.266c.37.58.554 1.205.554 1.873zm-3.93-.21h.131c.545 0 .818-.185.818-.564 0-.351-.264-.518-.791-.518h-.159v1.081zm.826.544l1.293 1.662h-.933l-1.187-1.574v1.574h-.756v-3.974h.8c.554 0 .959.096 1.223.299a1.1 1.1 0 0 1 .422.897c0 .5-.326.95-.81 1.099l-.052.017z"/>
    </g>
</svg>
